<svg width="48" height="48" viewBox="0 0 48 48" fill="none" xmlns="http://www.w3.org/2000/svg">
<path fill-rule="evenodd" clip-rule="evenodd" d="M2.70422 13.3333H8.11268V0H2.70422V13.3333ZM37.8592 24H32.4507V32H37.8592C44.1681 32 44.1681 24 37.8592 24ZM27.0423 24H5.40845V32C5.40845 37.8907 10.2517 42.6667 16.2254 42.6667C22.199 42.6667 27.0423 37.8907 27.0423 32V24ZM37.8592 37.3333H31.5069C29.2786 43.544 23.2861 48 16.2254 48C7.26355 48 0 40.8373 0 32V18.6667H32.4507H37.8592C51.3803 18.6667 51.3803 37.3333 37.8592 37.3333ZM24.338 13.3333H29.7465V0H24.338V13.3333ZM13.5211 13.3333H18.9296V0H13.5211V13.3333Z" fill="black"/>
</svg>
