<svg width="48" height="48" viewBox="0 0 48 48" fill="none" xmlns="http://www.w3.org/2000/svg">
<path d="M8 0C3.58933 0 0 3.58933 0 8V16H10.6667V21.3333H16V16H26.6667L26.6719 42.6667H14.9323C17.1536 42.6667 19.092 41.3679 19.8333 39.4479C20.2813 38.4426 21.3333 35.6588 21.3333 31.5521V29.3333H5.33333V31.5521C5.33333 34.9014 6.15967 37.581 6.79167 39.349C7.573 41.365 9.51304 42.6667 11.7344 42.6667H0V48H48V13.3333C48 5.98133 42.0187 0 34.6667 0H8ZM37.3333 30.6667C39.5413 30.6667 41.3333 32.4587 41.3333 34.6667C41.3333 36.8747 39.5413 38.6667 37.3333 38.6667C35.1253 38.6667 33.3333 36.8747 33.3333 34.6667C33.3333 32.4587 35.1253 30.6667 37.3333 30.6667Z" fill="black"/>
</svg>
